<mxfile host="app.diagrams.net" modified="2024-05-19T09:35:05.866Z" agent="Mozilla/5.0 (Macintosh; Intel Mac OS X 10.15; rv:125.0) Gecko/20100101 Firefox/125.0" etag="x6z1X_hX8PtnaYkuNCi5" version="24.4.4" type="github" pages="5">
  <diagram id="F-iOZzCVcNmpRCZe6tkR" name="Page-3">
    <mxGraphModel grid="1" page="1" gridSize="10" guides="1" tooltips="1" connect="1" arrows="1" fold="1" pageScale="1" pageWidth="850" pageHeight="1100" math="0" shadow="0">
      <root>
        <mxCell id="0" />
        <mxCell id="1" parent="0" />
        <mxCell id="lmNp3rmC-LeaxFNhLM95-1" value="&lt;div align=&quot;left&quot;&gt;&lt;font style=&quot;font-size: 22px;&quot;&gt;&lt;br&gt;&lt;/font&gt;&lt;/div&gt;&lt;div align=&quot;left&quot;&gt;&lt;font style=&quot;font-size: 22px;&quot;&gt;&lt;br&gt;&lt;/font&gt;&lt;/div&gt;&lt;div align=&quot;left&quot;&gt;&lt;font style=&quot;font-size: 22px;&quot;&gt;&lt;br&gt;&lt;/font&gt;&lt;/div&gt;&lt;div align=&quot;left&quot;&gt;&lt;font style=&quot;font-size: 22px;&quot;&gt;&lt;br&gt;&lt;/font&gt;&lt;/div&gt;&lt;div align=&quot;left&quot;&gt;&lt;font style=&quot;font-size: 22px;&quot;&gt;&lt;br&gt;&lt;/font&gt;&lt;/div&gt;&lt;div align=&quot;left&quot;&gt;&lt;font style=&quot;font-size: 22px;&quot;&gt;&lt;br&gt;&lt;/font&gt;&lt;/div&gt;&lt;div align=&quot;left&quot;&gt;&lt;font style=&quot;font-size: 22px;&quot;&gt;&lt;br&gt;&lt;/font&gt;&lt;/div&gt;&lt;div align=&quot;left&quot;&gt;&lt;font style=&quot;font-size: 22px;&quot;&gt;&lt;br&gt;&lt;/font&gt;&lt;/div&gt;&lt;div align=&quot;left&quot;&gt;&lt;font style=&quot;font-size: 22px;&quot;&gt;Example for MLOps : - Building a House&lt;/font&gt;&lt;/div&gt;&lt;div align=&quot;left&quot;&gt;&lt;font style=&quot;font-size: 22px;&quot;&gt;1. Planning and Design (Development Stage)&lt;br&gt;&lt;/font&gt;&lt;/div&gt;&lt;div align=&quot;left&quot;&gt;&lt;font style=&quot;font-size: 22px;&quot;&gt;2. Building the foundation (Data Preparation)&lt;br&gt;&lt;/font&gt;&lt;/div&gt;&lt;div align=&quot;left&quot;&gt;&lt;font style=&quot;font-size: 22px;&quot;&gt;3. Construction (Model Training)&lt;br&gt;&lt;/font&gt;&lt;/div&gt;&lt;div align=&quot;left&quot;&gt;&lt;font style=&quot;font-size: 22px;&quot;&gt;4. Inspection &amp;amp; Approval (Model Evaluation)&lt;br&gt;&lt;/font&gt;&lt;/div&gt;&lt;div align=&quot;left&quot;&gt;&lt;font style=&quot;font-size: 22px;&quot;&gt;5. Handing over Keys (Deployment)&lt;br&gt;&lt;/font&gt;&lt;/div&gt;&lt;div align=&quot;left&quot;&gt;&lt;font style=&quot;font-size: 22px;&quot;&gt;6. Maintenance &amp;amp; Repairs (Monitoring and Maintenance)&lt;br&gt;&lt;/font&gt;&lt;/div&gt;&lt;div align=&quot;left&quot;&gt;&lt;font style=&quot;font-size: 22px;&quot;&gt;&lt;br&gt;&lt;/font&gt;&lt;/div&gt;&lt;div align=&quot;left&quot;&gt;&lt;font style=&quot;font-size: 22px;&quot;&gt;&lt;br&gt;&lt;/font&gt;&lt;/div&gt;&lt;div align=&quot;left&quot;&gt;&lt;font style=&quot;font-size: 22px;&quot;&gt;&lt;br&gt;&lt;/font&gt;&lt;/div&gt;" style="text;html=1;align=left;verticalAlign=middle;whiteSpace=wrap;rounded=0;" vertex="1" parent="1">
          <mxGeometry x="-10" y="-2380" width="830" height="30" as="geometry" />
        </mxCell>
        <mxCell id="lmNp3rmC-LeaxFNhLM95-2" value="&lt;h1 style=&quot;margin-top: 0px;&quot;&gt;Components of MLOps&lt;br&gt;&lt;/h1&gt;&lt;p&gt;&lt;font style=&quot;font-size: 22px;&quot;&gt;1. Continuous Integration (CI) - CI measures that any new changes in the model or code are automatically tested and integrated with the existing system&lt;br&gt;&lt;/font&gt;&lt;/p&gt;&lt;p&gt;&lt;font style=&quot;font-size: 22px;&quot;&gt;2. Continuous Deployment (CD) - CD automates the deployment of new model versions or updates to production without downtime.&lt;br&gt;&lt;/font&gt;&lt;/p&gt;&lt;p&gt;&lt;font style=&quot;font-size: 22px;&quot;&gt;3. Monitoring - MLops involves setting up monitoring systems to track the model&#39;s performance, detect anomalies and gather data on how it it&#39;s being used.&lt;br&gt;&lt;/font&gt;&lt;/p&gt;" style="text;html=1;whiteSpace=wrap;overflow=hidden;rounded=0;" vertex="1" parent="1">
          <mxGeometry x="-20" y="-2200" width="850" height="200" as="geometry" />
        </mxCell>
        <mxCell id="lmNp3rmC-LeaxFNhLM95-3" value="&lt;h1 style=&quot;margin-top: 0px;&quot;&gt;Importance of MLOps&lt;br&gt;&lt;/h1&gt;&lt;p&gt;&lt;font style=&quot;font-size: 19px;&quot;&gt;1. Efficiency 2. Reliability 3. Scalability&lt;br&gt;&lt;/font&gt;&lt;/p&gt;" style="text;html=1;whiteSpace=wrap;overflow=hidden;rounded=0;" vertex="1" parent="1">
          <mxGeometry x="-30" y="-1980" width="830" height="120" as="geometry" />
        </mxCell>
        <mxCell id="lmNp3rmC-LeaxFNhLM95-4" value="&lt;div align=&quot;left&quot;&gt;&lt;font style=&quot;font-size: 30px;&quot;&gt;Git , MlFlow, Jenkins , Grafana, AWS&lt;br&gt;&lt;/font&gt;&lt;/div&gt;" style="text;html=1;align=left;verticalAlign=middle;whiteSpace=wrap;rounded=0;strokeWidth=4;" vertex="1" parent="1">
          <mxGeometry x="-40" y="-1890" width="710" height="110" as="geometry" />
        </mxCell>
        <mxCell id="lmNp3rmC-LeaxFNhLM95-5" value="&lt;h1 style=&quot;margin-top: 0px; font-size: 29px;&quot;&gt;GIT&lt;/h1&gt;&lt;p style=&quot;font-size: 29px;&quot;&gt;1. GIT is open source Distributed version control System(DVCS).&lt;/p&gt;&lt;p style=&quot;font-size: 29px;&quot;&gt;2. A version control system allows us to record changes to files over a period&lt;/p&gt;&lt;p style=&quot;font-size: 29px;&quot;&gt;3. GIT is used to mainintain the historical and current versions of source code.&lt;/p&gt;&lt;p style=&quot;font-size: 29px;&quot;&gt;Usage of GIT at higher level&lt;/p&gt;&lt;p style=&quot;font-size: 29px;&quot;&gt;=&amp;gt; In a project, developers have a copy of all versions of the code stored in the central server.&lt;/p&gt;&lt;p style=&quot;font-size: 29px;&quot;&gt;=&amp;gt; GiT allows to track the changes, who made the changes and when&lt;/p&gt;&lt;p style=&quot;font-size: 29px;&quot;&gt;=&amp;gt; GIT allows rollback/ restore changes&lt;/p&gt;&lt;p style=&quot;font-size: 29px;&quot;&gt;=&amp;gt; GIT allows multiple developers to coordinate and work on the same file&lt;/p&gt;&lt;p style=&quot;font-size: 29px;&quot;&gt;=&amp;gt; GIT can maintain a copy of file at remote and local level&lt;br&gt;&lt;/p&gt;" style="text;html=1;whiteSpace=wrap;overflow=hidden;rounded=0;" vertex="1" parent="1">
          <mxGeometry x="-40" y="-1800" width="930" height="120" as="geometry" />
        </mxCell>
        <mxCell id="lmNp3rmC-LeaxFNhLM95-6" value="&lt;font style=&quot;font-size: 29px;&quot;&gt;Base Model&lt;/font&gt;" style="rounded=0;whiteSpace=wrap;html=1;" vertex="1" parent="1">
          <mxGeometry x="30" y="-1440" width="320" height="100" as="geometry" />
        </mxCell>
        <mxCell id="lmNp3rmC-LeaxFNhLM95-7" value="Best Hyperparameter" style="text;html=1;align=center;verticalAlign=middle;whiteSpace=wrap;rounded=0;" vertex="1" parent="1">
          <mxGeometry x="150" y="-1410" width="60" height="100" as="geometry" />
        </mxCell>
        <mxCell id="lmNp3rmC-LeaxFNhLM95-8" style="edgeStyle=orthogonalEdgeStyle;rounded=0;orthogonalLoop=1;jettySize=auto;html=1;" edge="1" parent="1" source="lmNp3rmC-LeaxFNhLM95-9" target="lmNp3rmC-LeaxFNhLM95-6">
          <mxGeometry relative="1" as="geometry" />
        </mxCell>
        <mxCell id="lmNp3rmC-LeaxFNhLM95-9" value="&lt;font style=&quot;font-size: 21px;&quot;&gt;Experiment Branch&lt;/font&gt;" style="rounded=0;whiteSpace=wrap;html=1;" vertex="1" parent="1">
          <mxGeometry x="470" y="-1440" width="240" height="100" as="geometry" />
        </mxCell>
        <mxCell id="lmNp3rmC-LeaxFNhLM95-10" value="&lt;div align=&quot;left&quot;&gt;&lt;font style=&quot;font-size: 20px;&quot;&gt;2. GIT allows developers to track changes, who made the changes and when&lt;/font&gt;&lt;/div&gt;&lt;div align=&quot;left&quot;&gt;&lt;font style=&quot;font-size: 20px;&quot;&gt;3. GIT allows Rollback/restore changes&lt;/font&gt;&lt;/div&gt;&lt;div align=&quot;left&quot;&gt;&lt;font style=&quot;font-size: 20px;&quot;&gt;4. GIT allows multiple developers to coordinate and work on same files&lt;/font&gt;&lt;/div&gt;&lt;div align=&quot;left&quot;&gt;&lt;font style=&quot;font-size: 20px;&quot;&gt;5. GIT maintain a copy of the files at the remote and local levels&lt;br&gt;&lt;/font&gt;&lt;/div&gt;" style="text;html=1;align=left;verticalAlign=middle;whiteSpace=wrap;rounded=0;" vertex="1" parent="1">
          <mxGeometry x="-50" y="-1640" width="760" height="30" as="geometry" />
        </mxCell>
      </root>
    </mxGraphModel>
  </diagram>
  <diagram name="Page-1" id="cVwKLgfyHr3RPONvM4s9">
    <mxGraphModel grid="1" page="1" gridSize="10" guides="1" tooltips="1" connect="1" arrows="1" fold="1" pageScale="1" pageWidth="850" pageHeight="1100" math="0" shadow="0">
      <root>
        <mxCell id="0" />
        <mxCell id="1" parent="0" />
      </root>
    </mxGraphModel>
  </diagram>
  <diagram id="MicMQ77vYMq2K7jY_swo" name="Page-2" />
  <diagram id="ahF4p_yNkSLImZuA_tMT" name="Page-4">
    <mxGraphModel dx="954" dy="555" grid="1" gridSize="10" guides="1" tooltips="1" connect="1" arrows="1" fold="1" page="1" pageScale="1" pageWidth="850" pageHeight="1100" math="0" shadow="0">
      <root>
        <mxCell id="0" />
        <mxCell id="1" parent="0" />
        <mxCell id="DWiVXwwattE0S4H4aK_T-1" value="Commit History" style="swimlane;whiteSpace=wrap;html=1;" vertex="1" parent="1">
          <mxGeometry x="40" y="20" width="830" height="350" as="geometry" />
        </mxCell>
        <mxCell id="DWiVXwwattE0S4H4aK_T-2" value="&lt;font style=&quot;font-size: 16px;&quot;&gt;v1 - e7f27b6&lt;/font&gt;" style="ellipse;whiteSpace=wrap;html=1;aspect=fixed;" vertex="1" parent="DWiVXwwattE0S4H4aK_T-1">
          <mxGeometry x="50" y="70" width="80" height="80" as="geometry" />
        </mxCell>
        <mxCell id="Y257Ooq1IIN43o3Z7OXk-1" value="main" style="text;html=1;align=center;verticalAlign=middle;whiteSpace=wrap;rounded=0;" vertex="1" parent="DWiVXwwattE0S4H4aK_T-1">
          <mxGeometry x="170" y="240" width="60" height="30" as="geometry" />
        </mxCell>
        <mxCell id="Y257Ooq1IIN43o3Z7OXk-4" style="edgeStyle=orthogonalEdgeStyle;rounded=0;orthogonalLoop=1;jettySize=auto;html=1;entryX=1;entryY=0.5;entryDx=0;entryDy=0;" edge="1" parent="DWiVXwwattE0S4H4aK_T-1" source="Y257Ooq1IIN43o3Z7OXk-3" target="DWiVXwwattE0S4H4aK_T-2">
          <mxGeometry relative="1" as="geometry" />
        </mxCell>
        <mxCell id="Y257Ooq1IIN43o3Z7OXk-3" value="&lt;font style=&quot;font-size: 16px;&quot;&gt;v2 - 9a9acde&lt;/font&gt;" style="ellipse;whiteSpace=wrap;html=1;aspect=fixed;" vertex="1" parent="DWiVXwwattE0S4H4aK_T-1">
          <mxGeometry x="170" y="70" width="80" height="80" as="geometry" />
        </mxCell>
        <mxCell id="fhWI9hyF74wLCVHKPju2-3" value="" style="edgeStyle=orthogonalEdgeStyle;rounded=0;orthogonalLoop=1;jettySize=auto;html=1;" edge="1" parent="DWiVXwwattE0S4H4aK_T-1" source="Y257Ooq1IIN43o3Z7OXk-5" target="fhWI9hyF74wLCVHKPju2-1">
          <mxGeometry relative="1" as="geometry" />
        </mxCell>
        <mxCell id="Y257Ooq1IIN43o3Z7OXk-5" value="dev" style="text;html=1;align=center;verticalAlign=middle;whiteSpace=wrap;rounded=0;" vertex="1" parent="DWiVXwwattE0S4H4aK_T-1">
          <mxGeometry x="490" y="180" width="60" height="30" as="geometry" />
        </mxCell>
        <mxCell id="Y257Ooq1IIN43o3Z7OXk-9" style="edgeStyle=orthogonalEdgeStyle;rounded=0;orthogonalLoop=1;jettySize=auto;html=1;entryX=0.375;entryY=1.063;entryDx=0;entryDy=0;entryPerimeter=0;" edge="1" parent="DWiVXwwattE0S4H4aK_T-1" source="Y257Ooq1IIN43o3Z7OXk-1" target="Y257Ooq1IIN43o3Z7OXk-3">
          <mxGeometry relative="1" as="geometry" />
        </mxCell>
        <mxCell id="Y257Ooq1IIN43o3Z7OXk-13" style="edgeStyle=orthogonalEdgeStyle;rounded=0;orthogonalLoop=1;jettySize=auto;html=1;" edge="1" parent="DWiVXwwattE0S4H4aK_T-1" source="Y257Ooq1IIN43o3Z7OXk-11" target="Y257Ooq1IIN43o3Z7OXk-5">
          <mxGeometry relative="1" as="geometry" />
        </mxCell>
        <mxCell id="Y257Ooq1IIN43o3Z7OXk-11" value="Head" style="text;html=1;align=center;verticalAlign=middle;whiteSpace=wrap;rounded=0;" vertex="1" parent="DWiVXwwattE0S4H4aK_T-1">
          <mxGeometry x="490" y="300" width="60" height="30" as="geometry" />
        </mxCell>
        <mxCell id="Y257Ooq1IIN43o3Z7OXk-16" style="edgeStyle=orthogonalEdgeStyle;rounded=0;orthogonalLoop=1;jettySize=auto;html=1;entryX=1;entryY=0.5;entryDx=0;entryDy=0;" edge="1" parent="DWiVXwwattE0S4H4aK_T-1" source="Y257Ooq1IIN43o3Z7OXk-14" target="Y257Ooq1IIN43o3Z7OXk-3">
          <mxGeometry relative="1" as="geometry" />
        </mxCell>
        <mxCell id="Y257Ooq1IIN43o3Z7OXk-14" value="&lt;font style=&quot;font-size: 16px;&quot;&gt;v3 - b72bb2d&lt;/font&gt;" style="ellipse;whiteSpace=wrap;html=1;aspect=fixed;" vertex="1" parent="DWiVXwwattE0S4H4aK_T-1">
          <mxGeometry x="320" y="70" width="80" height="80" as="geometry" />
        </mxCell>
        <mxCell id="fhWI9hyF74wLCVHKPju2-2" style="edgeStyle=orthogonalEdgeStyle;rounded=0;orthogonalLoop=1;jettySize=auto;html=1;entryX=1;entryY=0.5;entryDx=0;entryDy=0;" edge="1" parent="DWiVXwwattE0S4H4aK_T-1" source="fhWI9hyF74wLCVHKPju2-1" target="Y257Ooq1IIN43o3Z7OXk-14">
          <mxGeometry relative="1" as="geometry" />
        </mxCell>
        <mxCell id="fhWI9hyF74wLCVHKPju2-1" value="&lt;font style=&quot;font-size: 16px;&quot;&gt;v4 - 62778b5&lt;/font&gt;" style="ellipse;whiteSpace=wrap;html=1;aspect=fixed;" vertex="1" parent="DWiVXwwattE0S4H4aK_T-1">
          <mxGeometry x="470" y="70" width="80" height="80" as="geometry" />
        </mxCell>
        <mxCell id="fhWI9hyF74wLCVHKPju2-4" style="edgeStyle=orthogonalEdgeStyle;rounded=0;orthogonalLoop=1;jettySize=auto;html=1;entryX=0.275;entryY=0.988;entryDx=0;entryDy=0;entryPerimeter=0;" edge="1" parent="DWiVXwwattE0S4H4aK_T-1" source="Y257Ooq1IIN43o3Z7OXk-1" target="fhWI9hyF74wLCVHKPju2-1">
          <mxGeometry relative="1" as="geometry" />
        </mxCell>
        <mxCell id="fhWI9hyF74wLCVHKPju2-5" value="&lt;font style=&quot;font-size: 17px;&quot;&gt;Checking out Commits&lt;/font&gt;" style="text;html=1;align=center;verticalAlign=middle;whiteSpace=wrap;rounded=0;" vertex="1" parent="1">
          <mxGeometry x="280" y="390" width="310" height="30" as="geometry" />
        </mxCell>
        <mxCell id="fhWI9hyF74wLCVHKPju2-6" value="V1" style="text;html=1;align=center;verticalAlign=middle;whiteSpace=wrap;rounded=0;" vertex="1" parent="1">
          <mxGeometry x="245" y="430" width="60" height="30" as="geometry" />
        </mxCell>
        <mxCell id="fhWI9hyF74wLCVHKPju2-7" value="V2" style="text;html=1;align=center;verticalAlign=middle;whiteSpace=wrap;rounded=0;" vertex="1" parent="1">
          <mxGeometry x="335" y="430" width="60" height="30" as="geometry" />
        </mxCell>
        <mxCell id="fhWI9hyF74wLCVHKPju2-8" value="V3" style="text;html=1;align=center;verticalAlign=middle;whiteSpace=wrap;rounded=0;" vertex="1" parent="1">
          <mxGeometry x="425" y="430" width="60" height="30" as="geometry" />
        </mxCell>
        <mxCell id="fhWI9hyF74wLCVHKPju2-9" value="V4" style="text;html=1;align=center;verticalAlign=middle;whiteSpace=wrap;rounded=0;" vertex="1" parent="1">
          <mxGeometry x="530" y="430" width="60" height="30" as="geometry" />
        </mxCell>
        <mxCell id="fhWI9hyF74wLCVHKPju2-10" style="edgeStyle=orthogonalEdgeStyle;rounded=0;orthogonalLoop=1;jettySize=auto;html=1;entryX=0.667;entryY=0.5;entryDx=0;entryDy=0;entryPerimeter=0;" edge="1" parent="1" source="fhWI9hyF74wLCVHKPju2-9" target="fhWI9hyF74wLCVHKPju2-7">
          <mxGeometry relative="1" as="geometry">
            <Array as="points">
              <mxPoint x="560" y="540" />
              <mxPoint x="375" y="540" />
            </Array>
          </mxGeometry>
        </mxCell>
        <mxCell id="fhWI9hyF74wLCVHKPju2-15" style="edgeStyle=orthogonalEdgeStyle;rounded=0;orthogonalLoop=1;jettySize=auto;html=1;entryX=0;entryY=0.5;entryDx=0;entryDy=0;" edge="1" parent="1" source="fhWI9hyF74wLCVHKPju2-11" target="fhWI9hyF74wLCVHKPju2-12">
          <mxGeometry relative="1" as="geometry" />
        </mxCell>
        <mxCell id="fhWI9hyF74wLCVHKPju2-11" value="&lt;font style=&quot;font-size: 14px;&quot;&gt;Checking out Commits refers to the process of switching your codebase to a specific commit in a version control system&lt;/font&gt;" style="rounded=0;whiteSpace=wrap;html=1;" vertex="1" parent="1">
          <mxGeometry x="70" y="560" width="150" height="190" as="geometry" />
        </mxCell>
        <mxCell id="fhWI9hyF74wLCVHKPju2-12" value="&lt;font style=&quot;font-size: 17px;&quot;&gt;When we checkout a commit, we are essentially telling the version control system to set our working directory and codebase to the state it was in at the time of specific commit&lt;br&gt;&lt;/font&gt;" style="rounded=0;whiteSpace=wrap;html=1;" vertex="1" parent="1">
          <mxGeometry x="360" y="560" width="200" height="190" as="geometry" />
        </mxCell>
        <mxCell id="fhWI9hyF74wLCVHKPju2-14" value="&lt;div style=&quot;font-size: 19px;&quot;&gt;&lt;font style=&quot;font-size: 19px;&quot;&gt;Uses :-&lt;/font&gt;&lt;/div&gt;&lt;div style=&quot;font-size: 19px;&quot;&gt;&lt;font style=&quot;font-size: 19px;&quot;&gt;=&amp;gt; Debugging&lt;/font&gt;&lt;/div&gt;&lt;div style=&quot;font-size: 19px;&quot;&gt;&lt;font style=&quot;font-size: 19px;&quot;&gt;=&amp;gt; Branching&lt;/font&gt;&lt;/div&gt;&lt;div style=&quot;font-size: 19px;&quot;&gt;&lt;font style=&quot;font-size: 19px;&quot;&gt;&lt;font style=&quot;font-size: 19px;&quot;&gt;=&amp;gt; Reviewing History&lt;/font&gt;&lt;font style=&quot;font-size: 19px;&quot;&gt;&lt;br&gt;&lt;/font&gt;&lt;/font&gt;&lt;/div&gt;" style="rounded=0;whiteSpace=wrap;html=1;" vertex="1" parent="1">
          <mxGeometry x="660" y="560" width="190" height="180" as="geometry" />
        </mxCell>
        <mxCell id="fhWI9hyF74wLCVHKPju2-16" style="edgeStyle=orthogonalEdgeStyle;rounded=0;orthogonalLoop=1;jettySize=auto;html=1;entryX=0.011;entryY=0.539;entryDx=0;entryDy=0;entryPerimeter=0;" edge="1" parent="1" source="fhWI9hyF74wLCVHKPju2-12" target="fhWI9hyF74wLCVHKPju2-14">
          <mxGeometry relative="1" as="geometry" />
        </mxCell>
        <mxCell id="fhWI9hyF74wLCVHKPju2-21" value="" style="edgeStyle=orthogonalEdgeStyle;rounded=0;orthogonalLoop=1;jettySize=auto;html=1;" edge="1" parent="1" source="fhWI9hyF74wLCVHKPju2-17" target="fhWI9hyF74wLCVHKPju2-20">
          <mxGeometry relative="1" as="geometry" />
        </mxCell>
        <mxCell id="fhWI9hyF74wLCVHKPju2-17" value="&lt;font style=&quot;font-size: 15px;&quot;&gt;git checkout 62778b56cdd3b674c5f346e9b0f9198561363cbd&lt;/font&gt;" style="text;html=1;align=center;verticalAlign=middle;whiteSpace=wrap;rounded=0;" vertex="1" parent="1">
          <mxGeometry x="430" y="790" width="410" height="30" as="geometry" />
        </mxCell>
        <mxCell id="fhWI9hyF74wLCVHKPju2-19" style="edgeStyle=orthogonalEdgeStyle;rounded=0;orthogonalLoop=1;jettySize=auto;html=1;" edge="1" parent="1" target="fhWI9hyF74wLCVHKPju2-17">
          <mxGeometry relative="1" as="geometry">
            <mxPoint x="350" y="805" as="sourcePoint" />
          </mxGeometry>
        </mxCell>
        <mxCell id="fhWI9hyF74wLCVHKPju2-18" value="To switch into specific version" style="text;html=1;align=center;verticalAlign=middle;whiteSpace=wrap;rounded=0;" vertex="1" parent="1">
          <mxGeometry x="140" y="790" width="210" height="30" as="geometry" />
        </mxCell>
        <mxCell id="fhWI9hyF74wLCVHKPju2-20" value="&lt;div align=&quot;left&quot;&gt;This will create a detached head, Connected with a specific version&lt;/div&gt;" style="text;html=1;align=left;verticalAlign=middle;whiteSpace=wrap;rounded=0;" vertex="1" parent="1">
          <mxGeometry x="380" y="860" width="670" height="30" as="geometry" />
        </mxCell>
        <mxCell id="fhWI9hyF74wLCVHKPju2-22" value="&lt;div&gt;&lt;font style=&quot;font-size: 16px;&quot;&gt;To see logs of all the version =&amp;gt; git log , but since the head is detached we can see versions only current &amp;amp; prior to position where head is connected &lt;br&gt;&lt;/font&gt;&lt;/div&gt;&lt;div&gt;&lt;font style=&quot;font-size: 16px;&quot;&gt;To see all versions we will five command =&amp;gt; git log --all&lt;br&gt;&lt;/font&gt;&lt;/div&gt;&lt;div&gt;&lt;font style=&quot;font-size: 16px;&quot;&gt;&lt;br&gt;&lt;/font&gt;&lt;/div&gt;" style="text;html=1;align=left;verticalAlign=middle;whiteSpace=wrap;rounded=0;" vertex="1" parent="1">
          <mxGeometry x="170" y="920" width="860" height="130" as="geometry" />
        </mxCell>
      </root>
    </mxGraphModel>
  </diagram>
  <diagram id="aP_Nt_ZO2kAk_wBJJ_qb" name="Page-5">
    <mxGraphModel dx="954" dy="555" grid="1" gridSize="10" guides="1" tooltips="1" connect="1" arrows="1" fold="1" page="1" pageScale="1" pageWidth="850" pageHeight="1100" math="0" shadow="0">
      <root>
        <mxCell id="0" />
        <mxCell id="1" parent="0" />
        <mxCell id="UOn76mjQuH8cDgRNaT_Y-2" value="&lt;h1 style=&quot;margin-top: 0px; font-size: 25px;&quot;&gt;Merging&lt;/h1&gt;&lt;p style=&quot;font-size: 25px;&quot;&gt;&lt;font style=&quot;font-size: 25px;&quot;&gt;I&lt;font style=&quot;font-size: 25px;&quot;&gt;n GIT,&lt;/font&gt; merging refers to the process of combining changes from different branches.&lt;/font&gt;&lt;/p&gt;&lt;p style=&quot;font-size: 25px;&quot;&gt;&lt;font style=&quot;font-size: 25px;&quot;&gt;When we work on a project with multiple collaborators or when we are managing different features or bug fixes in seperate branches, we may need to merge those changes back into the main branch or another target branch.&lt;/font&gt;&lt;/p&gt;&lt;p style=&quot;font-size: 25px;&quot;&gt;&lt;font style=&quot;font-size: 25px;&quot;&gt;&lt;br&gt;&lt;/font&gt; &lt;/p&gt;" style="text;html=1;whiteSpace=wrap;overflow=hidden;rounded=0;" vertex="1" parent="1">
          <mxGeometry x="30" y="60" width="800" height="120" as="geometry" />
        </mxCell>
        <mxCell id="UOn76mjQuH8cDgRNaT_Y-3" value="&lt;font style=&quot;font-size: 27px;&quot;&gt;When we work on project with multiple collaborators or when we are managing different features or bug fixes in seperate branches, we may need to merge those changes back into the main branch or another target branch&lt;/font&gt;" style="text;html=1;align=left;verticalAlign=middle;whiteSpace=wrap;rounded=0;" vertex="1" parent="1">
          <mxGeometry x="10" y="280" width="800" height="30" as="geometry" />
        </mxCell>
        <mxCell id="UOn76mjQuH8cDgRNaT_Y-4" value="&lt;h1 style=&quot;margin-top: 0px;&quot;&gt;Fast forward merge:&lt;br&gt;&lt;/h1&gt;&lt;p style=&quot;font-size: 18px;&quot;&gt;=&lt;font style=&quot;font-size: 18px;&quot;&gt;&amp;gt; When the branch being merged has no new commits that the branch it is merging into doesn&#39;t alraedy have.&lt;/font&gt;&lt;/p&gt;&lt;p style=&quot;font-size: 18px;&quot;&gt;&lt;font style=&quot;font-size: 18px;&quot;&gt;=&amp;gt; GIT simply moves the branch pointer forward, and no new merge commit is created&lt;/font&gt;&lt;br&gt;&lt;/p&gt;" style="text;html=1;whiteSpace=wrap;overflow=hidden;rounded=0;" vertex="1" parent="1">
          <mxGeometry x="20" y="410" width="850" height="200" as="geometry" />
        </mxCell>
      </root>
    </mxGraphModel>
  </diagram>
</mxfile>
